solid tower
facet normal 0 0 0
 outer loop
  vertex 0 0 0
  vertex 20 20 0
  vertex 20 0 0
 endloop
endfacet
facet normal 0 0 0
 outer loop
  vertex 0 0 0
  vertex 0 20 0
  vertex 20 20 0
 endloop
endfacet
facet normal 0 0 0
 outer loop
  vertex 0 0 60
  vertex 20 0 60
  vertex 20 20 60
 endloop
endfacet
facet normal 0 0 0
 outer loop
  vertex 0 0 60
  vertex 20 20 60
  vertex 0 20 60
 endloop
endfacet
facet normal 0 0 0
 outer loop
  vertex 0 0 0
  vertex 20 0 0
  vertex 20 0 60
 endloop
endfacet
facet normal 0 0 0
 outer loop
  vertex 0 0 0
  vertex 20 0 60
  vertex 0 0 60
 endloop
endfacet
facet normal 0 0 0
 outer loop
  vertex 20 0 0
  vertex 20 20 0
  vertex 20 20 60
 endloop
endfacet
facet normal 0 0 0
 outer loop
  vertex 20 0 0
  vertex 20 20 60
  vertex 20 0 60
 endloop
endfacet
facet normal 0 0 0
 outer loop
  vertex 20 20 0
  vertex 0 20 0
  vertex 0 20 60
 endloop
endfacet
facet normal 0 0 0
 outer loop
  vertex 20 20 0
  vertex 0 20 60
  vertex 20 20 60
 endloop
endfacet
facet normal 0 0 0
 outer loop
  vertex 0 20 0
  vertex 0 0 0
  vertex 0 0 60
 endloop
endfacet
facet normal 0 0 0
 outer loop
  vertex 0 20 0
  vertex 0 0 60
  vertex 0 20 60
 endloop
endfacet
facet normal 0 0 0
 outer loop
  vertex -8 -8 0
  vertex 28 28 0
  vertex 28 -8 0
 endloop
endfacet
facet normal 0 0 0
 outer loop
  vertex -8 -8 0
  vertex -8 28 0
  vertex 28 28 0
 endloop
endfacet
facet normal 0 0 0
 outer loop
  vertex -8 -8 12
  vertex 28 -8 12
  vertex 28 28 12
 endloop
endfacet
facet normal 0 0 0
 outer loop
  vertex -8 -8 12
  vertex 28 28 12
  vertex -8 28 12
 endloop
endfacet
facet normal 0 0 0
 outer loop
  vertex -8 -8 0
  vertex 28 -8 0
  vertex 28 -8 12
 endloop
endfacet
facet normal 0 0 0
 outer loop
  vertex -8 -8 0
  vertex 28 -8 12
  vertex -8 -8 12
 endloop
endfacet
facet normal 0 0 0
 outer loop
  vertex 28 -8 0
  vertex 28 28 0
  vertex 28 28 12
 endloop
endfacet
facet normal 0 0 0
 outer loop
  vertex 28 -8 0
  vertex 28 28 12
  vertex 28 -8 12
 endloop
endfacet
facet normal 0 0 0
 outer loop
  vertex 28 28 0
  vertex -8 28 0
  vertex -8 28 12
 endloop
endfacet
facet normal 0 0 0
 outer loop
  vertex 28 28 0
  vertex -8 28 12
  vertex 28 28 12
 endloop
endfacet
facet normal 0 0 0
 outer loop
  vertex -8 28 0
  vertex -8 -8 0
  vertex -8 -8 12
 endloop
endfacet
facet normal 0 0 0
 outer loop
  vertex -8 28 0
  vertex -8 -8 12
  vertex -8 28 12
 endloop
endfacet
endsolid tower
